<?xml version="1.0" encoding="UTF-8"?>
<svg version="1.1" xmlns="http://www.w3.org/2000/svg" width="626" height="626" viewBox="-93.5 0 626 626">
<defs><clipPath id="rounded"><rect x="-93.5" y="0" width="626" height="626" rx="90" ry="90"/></clipPath></defs>
<g clip-path="url(#rounded)">
<rect x="-93.5" y="0" width="626" height="626" fill="#FDFDFD"/>
<g transform="translate(219.5,313) scale(0.9) translate(-219.5,-313)">
<path d="M0 0 C144.87 0 289.74 0 439 0 C439 206.58 439 413.16 439 626 C294.13 626 149.26 626 0 626 C0 419.42 0 212.84 0 0 Z " fill="#FDFDFD" transform="translate(0,0)"/>
<path d="M0 0 C144.87 0 289.74 0 439 0 C439 36.3 439 72.6 439 110 C437.4566283 106.9132566 436.65737882 104.85369008 435.875 101.625 C428.68701544 77.47620459 407.54433174 60.11362486 386.3984375 48.27539062 C374.2358874 41.80784566 361.28305662 37.49340327 348 34 C347.35724121 33.8232373 346.71448242 33.64647461 346.05224609 33.46435547 C324.82914909 27.81149897 300.28036151 28.013087 279 33 C277.76507813 33.2784375 276.53015625 33.556875 275.2578125 33.84375 C253.12432409 39.27183595 233.41461095 49.00462273 217 65 C215.81930739 65.96670781 214.63222669 66.92569121 213.4375 67.875 C208.62001525 71.96873117 204.91081679 77.06719276 201 82 C200.36320313 82.74765625 199.72640625 83.4953125 199.0703125 84.265625 C188.16800586 97.20363205 180.1056038 112.39132498 171.94873047 127.12963867 C168.34247724 133.64056496 164.61741217 140.01573006 160.6484375 146.3125 C159.02895522 148.95279338 157.56698115 151.63443914 156.125 154.375 C147.67982921 170.1178999 136.54855835 184.43990997 125 198 C143.1096376 195.04149485 160.49759766 190.48588689 178 185 C179.54300781 184.52626953 179.54300781 184.52626953 181.1171875 184.04296875 C193.78220738 179.82771137 206.17261054 173.02965664 216 164 C216.83917969 163.25234375 217.67835938 162.5046875 218.54296875 161.734375 C227.24348014 153.57353224 232.95513205 143.72034439 238 133 C238.66 133 239.32 133 240 133 C233.4428432 155.37147613 218.65534056 176.19938757 198.09375 187.61328125 C195.09048478 189.14257551 192.05507567 190.57740751 189 192 C188.02804688 192.49242187 187.05609375 192.98484375 186.0546875 193.4921875 C179.81748755 196.57090768 173.59503287 198.87610348 166.9375 200.84765625 C165.6369165 201.23510765 165.6369165 201.23510765 164.31005859 201.63038635 C153.37440812 204.83644573 142.2926265 207.46372142 131.20898438 210.10180664 C89.04152366 220.1745699 45.61789776 238.27005565 21.26611328 276.39648438 C12.46569822 290.8480149 6.35682898 305.5102765 3.25 322.1875 C2.91935547 323.90163086 2.91935547 323.90163086 2.58203125 325.65039062 C2.04662767 328.4321614 1.51944217 331.21521279 1 334 C0.67 334 0.34 334 0 334 C0 223.78 0 113.56 0 0 Z " fill="#FCFCFC" transform="translate(0,0)"/>
<path d="M0 0 C0.85207031 0.68578125 1.70414062 1.3715625 2.58203125 2.078125 C15.49434218 13.05867287 29.55593446 30.45146441 31 48 C31.07992188 48.89589844 31.15984375 49.79179688 31.2421875 50.71484375 C31.91622671 65.80142713 25.981259 77.93687555 16.5625 89.3125 C5.86599483 100.92786795 -9.3551231 107.78482278 -24 113 C-24.90008789 113.33040283 -25.80017578 113.66080566 -26.72753906 114.0012207 C-33.64150909 116.44417918 -40.2122731 117.94212553 -47.5 118.6875 C-48.63711426 118.80923584 -49.77422852 118.93097168 -50.94580078 119.05639648 C-66.47749491 120.50182476 -82.10973447 120.49395575 -97.69726562 120.62182617 C-121.22094055 120.84798616 -146.23572708 123.09040311 -165 139 C-164.30519531 138.63648438 -163.61039063 138.27296875 -162.89453125 137.8984375 C-141.06200245 127.10669323 -120.90302375 126.1836256 -97 127 C-99.21561625 129.21561625 -100.86936697 129.89891045 -103.76171875 131.05859375 C-104.71626953 131.44466797 -105.67082031 131.83074219 -106.65429688 132.22851562 C-107.65525391 132.62748047 -108.65621094 133.02644531 -109.6875 133.4375 C-111.64993806 134.22737165 -113.61218199 135.01772581 -115.57421875 135.80859375 C-116.51289795 136.18508057 -117.45157715 136.56156738 -118.41870117 136.94946289 C-120.55512444 137.81894453 -122.67052466 138.71905976 -124.78125 139.6484375 C-128.74500514 141.31282983 -132.77506278 142.56536343 -136.88330078 143.81982422 C-137.62177246 144.04557129 -138.36024414 144.27131836 -139.12109375 144.50390625 C-139.90468262 144.74254395 -140.68827148 144.98118164 -141.49560547 145.22705078 C-144.11948177 146.03687652 -146.73360632 146.87386628 -149.34765625 147.71484375 C-176.03584203 156.22273278 -203.23356981 163.13702986 -230.5625 169.25 C-268.4072631 177.73054799 -304.39522168 188.60542384 -333 216 C-334.2684375 217.2065625 -334.2684375 217.2065625 -335.5625 218.4375 C-336.366875 219.283125 -337.17125 220.12875 -338 221 C-338.65355469 221.6703125 -339.30710937 222.340625 -339.98046875 223.03125 C-359.66250644 243.89895261 -370.67275347 271.99876074 -370.4375 300.625 C-370.42992676 301.93243164 -370.42235352 303.23986328 -370.41455078 304.58691406 C-370.23116904 315.4639944 -368.93473109 325.5403174 -366 336 C-365.70246826 337.11060791 -365.70246826 337.11060791 -365.39892578 338.24365234 C-360.66644816 355.49065313 -352.25559895 372.0932889 -341 386 C-340.35546875 386.83273437 -339.7109375 387.66546875 -339.046875 388.5234375 C-328.03744839 402.61030226 -315.53852947 415.8997674 -301.5 427 C-299.14594114 428.88324708 -296.91459982 430.84440899 -294.6875 432.875 C-289.26899671 437.74296017 -283.52420802 442.17852392 -277.765625 446.6328125 C-276.12093637 447.90635458 -274.48167852 449.18653323 -272.84375 450.46875 C-258.03068433 461.9900233 -242.70870953 472.73910352 -227 483 C-226.22076172 483.50901855 -225.44152344 484.01803711 -224.63867188 484.54248047 C-214.91164778 490.91848477 -214.91164778 490.91848477 -205 497 C-208.67648105 498.22549368 -209.26992024 497.69093418 -212.65625 496.04296875 C-214.05097534 495.37140747 -214.05097534 495.37140747 -215.47387695 494.6862793 C-216.97180786 493.94438354 -216.97180786 493.94438354 -218.5 493.1875 C-220.05497192 492.4291687 -220.05497192 492.4291687 -221.64135742 491.65551758 C-230.30585788 487.40401728 -238.87120329 482.98072335 -247.37109375 478.41015625 C-250.30474102 476.83653565 -253.24602863 475.27769382 -256.1875 473.71875 C-290.89225275 455.26377471 -324.28255977 435.0637674 -353 408 C-354.09828125 406.96552734 -354.09828125 406.96552734 -355.21875 405.91015625 C-360.62839482 400.66151276 -365.34512544 394.9200456 -370 389 C-370.74378906 388.0615625 -371.48757813 387.123125 -372.25390625 386.15625 C-378.19087886 378.4743237 -383.26193383 370.45625077 -388 362 C-388.34417969 361.39236816 -388.68835938 360.78473633 -389.04296875 360.15869141 C-408.21775273 325.80387011 -413.53607598 284.89688385 -403 247 C-401.38731229 241.80440195 -399.33268103 236.91786878 -397 232 C-396.56171875 231.00742187 -396.1234375 230.01484375 -395.671875 228.9921875 C-380.54838141 196.39845132 -350.96158426 173.25467266 -318.3125 159.875 C-317.58434082 159.57424561 -316.85618164 159.27349121 -316.10595703 158.96362305 C-299.77074363 152.52261484 -282.52546754 148.50892345 -265.5 144.375 C-249.3054995 140.44111324 -234.0678316 136.27790895 -219 129 C-217.49953125 128.32324219 -217.49953125 128.32324219 -215.96875 127.6328125 C-191.58731002 116.27619441 -177.7472556 95.27131196 -168 71 C-168.66 71 -169.32 71 -170 71 C-170.26683594 71.87140625 -170.53367188 72.7428125 -170.80859375 73.640625 C-174.35131196 83.62992881 -180.70878981 91.48545545 -188 99 C-188.54011719 99.61359375 -189.08023438 100.2271875 -189.63671875 100.859375 C-195.1064158 106.86639746 -202.06809249 110.90421365 -209 115 C-210.01320312 115.60972656 -211.02640625 116.21945313 -212.0703125 116.84765625 C-231.99591534 127.80923475 -258.45905273 133.87174921 -281 137 C-281.99 136.67 -282.98 136.34 -284 136 C-283.27296875 135.19820312 -282.5459375 134.39640625 -281.796875 133.5703125 C-274.11918948 124.9475819 -267.60960439 115.86845407 -261.38427734 106.15576172 C-260.08844984 104.13774464 -258.77639985 102.13158421 -257.45703125 100.12890625 C-252.94923927 93.24207824 -248.91417244 86.2415779 -245 79 C-219.01900454 31.58067387 -219.01900454 31.58067387 -202.109375 13.30078125 C-200.20964982 11.2286736 -198.41773619 9.10158869 -196.625 6.9375 C-178.3614727 -13.86957791 -151.40742093 -25.17048795 -125 -31 C-123.99066406 -31.22816406 -122.98132813 -31.45632812 -121.94140625 -31.69140625 C-80.06947121 -39.64318143 -32.81544667 -26.54527066 0 0 Z " fill="#009B8D" transform="translate(408,62)"/>
<path d="M0 0 C0.52335938 0.53496094 1.04671875 1.06992188 1.5859375 1.62109375 C2.15828125 2.18699219 2.730625 2.75289062 3.3203125 3.3359375 C4.13242187 4.18865234 4.13242187 4.18865234 4.9609375 5.05859375 C5.9096875 5.92484375 6.8584375 6.79109375 7.8359375 7.68359375 C10.03940343 10.14629097 10.54901138 10.88985211 10.9609375 14.05859375 C10.54296875 17.02514648 10.54296875 17.02514648 9.7734375 20.4921875 C9.34985962 22.40862061 9.34985962 22.40862061 8.91772461 24.36376953 C8.6004391 25.74159044 8.28147084 27.11902478 7.9609375 28.49609375 C7.79933136 29.19587341 7.63772522 29.89565308 7.47122192 30.61663818 C0.89799399 58.91324276 -9.97150231 85.72957549 -26.0390625 110.05859375 C-26.87050781 111.31929687 -26.87050781 111.31929687 -27.71875 112.60546875 C-29.4428768 115.12978836 -31.22649883 117.59691236 -33.0390625 120.05859375 C-33.67884033 120.93402832 -33.67884033 120.93402832 -34.33154297 121.82714844 C-41.21381722 131.22559916 -48.37435605 140.28728074 -56.0390625 149.05859375 C-57.12574219 150.31349609 -57.12574219 150.31349609 -58.234375 151.59375 C-67.98554174 162.65826576 -78.37078724 173.02299341 -90.0390625 182.05859375 C-91.18298319 182.96918404 -92.32617764 183.88068721 -93.46875 184.79296875 C-94.63734263 185.71570331 -95.80660284 186.6375931 -96.9765625 187.55859375 C-97.52062744 187.99268555 -98.06469238 188.42677734 -98.62524414 188.87402344 C-101.34841433 190.98803553 -103.57537409 192.59120447 -107.0390625 193.05859375 C-107.66510835 191.35064341 -108.28984665 189.64221377 -108.9140625 187.93359375 C-109.26210937 186.98226562 -109.61015625 186.0309375 -109.96875 185.05078125 C-110.32195312 184.06335938 -110.67515625 183.0759375 -111.0390625 182.05859375 C-111.38420898 181.12990479 -111.72935547 180.20121582 -112.08496094 179.24438477 C-117.14548389 162.34705518 -113.20664776 141.54160227 -105.2890625 126.24609375 C-101.84410382 119.97675189 -97.83190085 114.3818648 -93.0390625 109.05859375 C-92.44867188 108.37539063 -91.85828125 107.6921875 -91.25 106.98828125 C-80.87337408 95.72853823 -66.91205004 88.9372365 -52.0390625 86.05859375 C-73.62647362 86.61732674 -91.75297151 99.11927211 -106.390625 114.0234375 C-110.76474167 118.83496583 -113.91266571 124.37761146 -117.0390625 130.05859375 C-117.65201172 131.12013672 -117.65201172 131.12013672 -118.27734375 132.203125 C-125.94608753 146.26742344 -128.88297075 164.3689888 -124.4140625 179.87109375 C-115.81952447 204.20720669 -95.35382975 214.25718031 -73.3671875 224.7890625 C-70.3918598 226.20672585 -67.41482087 227.62073388 -64.43725586 229.03369141 C-52.75139086 234.59354652 -41.39970229 240.22281575 -31.0390625 248.05859375 C-30.22050781 248.63867188 -29.40195313 249.21875 -28.55859375 249.81640625 C-15.80046073 259.27127072 -4.32971603 275.36705144 -1.0390625 291.05859375 C-0.84317696 293.45819164 -0.88512715 295.64694 -1.0390625 298.05859375 C-2.21863614 295.7502415 -3.32022932 293.4298621 -4.37890625 291.0625 C-15.66009205 266.76243963 -36.32130277 253.49290671 -60.91075134 244.43997192 C-62.59081236 243.82912813 -64.27189544 243.22108867 -65.95394897 242.61575317 C-70.37418209 241.02187271 -74.77868346 239.38566022 -79.18359375 237.75 C-80.04374588 237.4310527 -80.90389801 237.11210541 -81.79011536 236.78349304 C-110.29340978 226.16879401 -136.82390958 214.02996675 -150.22460938 184.99511719 C-156.95962475 168.98128567 -156.36182379 147.03991798 -150.0390625 131.05859375 C-149.72710937 130.24777344 -149.41515625 129.43695313 -149.09375 128.6015625 C-148.16166369 126.36533861 -147.13621948 124.21838179 -146.0390625 122.05859375 C-145.60851562 121.19878906 -145.17796875 120.33898437 -144.734375 119.453125 C-136.7344216 104.12348457 -125.78776245 91.48040241 -112.0390625 81.05859375 C-111.07484375 80.31738281 -110.110625 79.57617188 -109.1171875 78.8125 C-93.2701889 67.20879671 -74.37463407 59.50298707 -55.0390625 56.05859375 C-82.96911844 59.2920134 -113.56974708 72.89804643 -133.2109375 93.31640625 C-135.0390625 95.05859375 -135.0390625 95.05859375 -137.0390625 95.05859375 C-137.29558594 95.63867188 -137.55210937 96.21875 -137.81640625 96.81640625 C-139.15205893 99.26581403 -140.66830558 100.92613101 -142.6015625 102.93359375 C-159.65529064 121.78571504 -167.20545518 145.47514948 -166.22705078 170.6875 C-165.77295959 176.4149463 -164.00977957 181.68203812 -162.0390625 187.05859375 C-161.76191406 187.91324219 -161.48476562 188.76789063 -161.19921875 189.6484375 C-148.64385472 225.34732968 -109.36243062 245.99634581 -78.4140625 263.12109375 C-57.18547956 274.87613941 -37.06026368 287.74837227 -19.0390625 304.05859375 C-18.14316406 304.86941406 -17.24726563 305.68023438 -16.32421875 306.515625 C2.46052996 324.41010126 13.46307944 347.69674501 17.9609375 373.05859375 C18.14052002 374.00935791 18.32010254 374.96012207 18.50512695 375.93969727 C18.9701473 379.12161205 19.07450457 382.11804515 19.05859375 385.33203125 C19.05537109 386.48574219 19.05214844 387.63945313 19.04882812 388.828125 C19.04044922 390.01792969 19.03207031 391.20773437 19.0234375 392.43359375 C19.01892578 393.64660156 19.01441406 394.85960937 19.00976562 396.109375 C18.99802104 399.09249882 18.9815959 402.07552054 18.9609375 405.05859375 C16.76043433 402.85809058 16.49806917 401.91685732 15.76953125 398.97265625 C15.44287476 397.71461182 15.44287476 397.71461182 15.10961914 396.43115234 C14.8749292 395.52445801 14.64023926 394.61776367 14.3984375 393.68359375 C7.67471125 369.03063988 -4.75254976 349.67483824 -22.0390625 331.05859375 C-22.84730469 330.16914062 -22.84730469 330.16914062 -23.671875 329.26171875 C-38.83856752 313.25666635 -59.18740804 301.87786298 -78.39941406 291.49267578 C-88.3253974 286.10003556 -98.17993131 280.57228117 -108.0390625 275.05859375 C-108.96525391 274.54087402 -109.89144531 274.0231543 -110.84570312 273.48974609 C-128.36150138 263.65614129 -144.86079175 252.77567171 -159.69921875 239.171875 C-161.62297841 237.43438923 -163.58037837 235.80334177 -165.6015625 234.18359375 C-170.41671317 230.08221836 -174.18884473 225.0452801 -178.0390625 220.05859375 C-178.62558594 219.3109375 -179.21210938 218.56328125 -179.81640625 217.79296875 C-185.95379761 209.53276203 -190.46468564 200.24211027 -195.0390625 191.05859375 C-195.58175781 189.98222656 -196.12445313 188.90585937 -196.68359375 187.796875 C-207.44220859 164.49196007 -204.86758257 134.71684191 -197.0390625 111.05859375 C-195.86201017 107.96883139 -194.49855976 105.02367766 -193.0390625 102.05859375 C-192.62011719 101.13691406 -192.20117188 100.21523438 -191.76953125 99.265625 C-179.44594933 73.02284588 -156.13862718 56.00334972 -131.0390625 43.05859375 C-130.42659668 42.73938965 -129.81413086 42.42018555 -129.18310547 42.09130859 C-106.32970411 30.33465272 -80.4799119 23.08416518 -55.8828125 15.83203125 C-43.745681 12.24099627 -31.69718755 8.40437564 -19.66259766 4.48583984 C-18.68745461 4.16892685 -18.68745461 4.16892685 -17.69261169 3.84561157 C-15.91537426 3.26772952 -14.13869772 2.68812328 -12.36206055 2.10839844 C-2.31098223 -1.06694774 -2.31098223 -1.06694774 0 0 Z " fill="#009B8D" transform="translate(257.0390625,218.94140625)"/>
<path d="M0 0 C2.178657 3.26798549 2.72208564 4.20905038 2 8 C0.4703942 9.20415776 -1.06343757 10.40427519 -2.63671875 11.55078125 C-4.41050225 13.43637918 -4.27386615 14.45586809 -4.25 17 C-4.33203125 19.0625 -4.33203125 19.0625 -5 21 C-8.43475485 23.53793609 -12.636316 26 -17 26 C-16.97679687 26.6290625 -16.95359375 27.258125 -16.9296875 27.90625 C-16.78189753 34.91571697 -16.8102684 41.50230462 -21.25 47.3125 C-25.970558 51.92577259 -30.12864677 53.41987243 -36.6875 53.375 C-43.20799563 53.23086273 -48.85029074 52.09412287 -55 50 C-55.82628906 49.72542969 -56.65257812 49.45085937 -57.50390625 49.16796875 C-58.98316523 48.67325776 -60.45913017 48.16844446 -61.9296875 47.6484375 C-68.48267164 45.59599341 -75.85508606 44.49638756 -82.43359375 46.8828125 C-94.92864859 54.11565187 -101.03301976 71.97647373 -104.62451172 85.3203125 C-106.71154831 94.16741143 -107.74999203 103.57841235 -103.37890625 111.87890625 C-95.96090126 123.28960514 -86.71214997 128.44772717 -73.61450195 131.33935547 C-67.50928283 132.45524354 -61.36889599 132.888765 -55.1875 133.375 C-34.35551922 135.21929863 -16.24853145 140.24687364 -1.53515625 155.95703125 C6.35767182 165.43085724 11.55265964 175.12121274 15 187 C15.18328857 187.62922363 15.36657715 188.25844727 15.55541992 188.90673828 C21.05435669 209.03918896 15.03812066 231.34907643 5 249 C4.37941573 250.29264557 3.76243815 251.58702679 3.1484375 252.8828125 C0.96063348 257.29624091 -1.81570856 261.10511648 -4.8125 265 C-5.34004883 265.69480469 -5.86759766 266.38960937 -6.41113281 267.10546875 C-10.08423114 271.90684559 -13.87072523 276.57993123 -18 281 C-18.33 280.34 -18.66 279.68 -19 279 C-18.34938905 277.32700041 -17.67966676 275.66140763 -17 274 C-13.94645803 258.6462749 -16.65708948 244.98387623 -25.1484375 231.9453125 C-32.25440349 221.72440251 -41.47168945 212.7535375 -51.265625 205.1328125 C-54.38510795 202.6996158 -57.37523342 200.14034095 -60.375 197.5625 C-64.60448484 193.94507883 -68.91729937 190.51984973 -73.375 187.1875 C-98.22768021 168.44371021 -117.30680493 145.19400958 -123 114 C-123.78672069 107.14303088 -123.67480511 100.26514829 -123.5625 93.375 C-123.55546051 92.44756989 -123.54842102 91.52013977 -123.54116821 90.56460571 C-123.41262872 74.14013392 -121.86336354 58.18642546 -119.52587891 41.94921875 C-118.97121007 37.78379488 -118.52990724 33.62059943 -118.13671875 29.4375 C-118.07093124 28.73953812 -118.00514374 28.04157623 -117.93736267 27.32246399 C-117.62749933 23.99470573 -117.32962665 20.66625176 -117.03979492 17.33666992 C-116.93127197 16.16724854 -116.82274902 14.99782715 -116.7109375 13.79296875 C-116.62118652 12.7671167 -116.53143555 11.74126465 -116.43896484 10.68432617 C-116.0117522 8.0718662 -115.32563078 6.27226799 -114 4 C-113.54898926 4.31114746 -113.09797852 4.62229492 -112.63330078 4.94287109 C-75.1756003 31.99612736 -75.1756003 31.99612736 -32 41 C-28.65012313 39.95781608 -27.48233321 38.83068496 -25.734375 35.8203125 C-24.43126939 33.23765138 -23.20989354 30.62742557 -22 28 C-19.66884222 23.30222956 -17.28567671 20.1273857 -13 17 C-12.67 16.34 -12.34 15.68 -12 15 C-12.82951172 14.61328125 -12.82951172 14.61328125 -13.67578125 14.21875 C-16.33201223 12.82590283 -18.72739345 11.2151703 -21.1875 9.5 C-22.06792969 8.8915625 -22.94835937 8.283125 -23.85546875 7.65625 C-26 6 -26 6 -27 4 C-26.17757812 3.96261719 -25.35515625 3.92523438 -24.5078125 3.88671875 C-18.03145073 3.50531638 -12.25089257 2.78151189 -6.12109375 0.62109375 C-4 0 -4 0 0 0 Z " fill="#009B8D" transform="translate(410,287)"/>
<path d="M0 0 C0.99 0.495 0.99 0.495 2 1 C1.05125 1.825 0.1025 2.65 -0.875 3.5 C-15.29664587 17.95095816 -23.23929024 38.85229967 -23.3125 59 C-23.1395362 73.53029978 -19.91136199 86.96116801 -16.4375 101.01171875 C-11.72379824 120.47314793 -9.54912398 142.13157129 -19.6875 160.375 C-28.75120007 173.93630439 -39.39640061 181.48748913 -54.375 187.3125 C-64.41095314 189.21587042 -74.48201184 188.75436118 -83.44140625 183.59375 C-89.29246111 179.50668697 -92.91969955 174.86099092 -95 168 C-95.98164359 161.70696343 -95.48405443 156.16269951 -92.27734375 150.59375 C-90.24399704 148.05673025 -88.03164596 147.03204969 -85 146 C-84.01 146 -83.02 146 -82 146 C-82 145.34 -82 144.68 -82 144 C-87.76170155 143.53906388 -90.54802455 144.3058076 -95 148 C-102.13768488 154.71049177 -105.59517393 163.53835318 -106.203125 173.2421875 C-106.37256173 186.37353384 -104.67509378 198.04563383 -98.20703125 209.70703125 C-97 212 -97 212 -97 214 C-108.75478082 209.90774948 -114.8075571 199.5721133 -120 189 C-123.432013 181.48055486 -124.18069399 174.27860567 -124.1875 166.125 C-124.20586914 164.97837891 -124.20586914 164.97837891 -124.22460938 163.80859375 C-124.254701 151.99261762 -119.8246806 140.23007583 -111.69140625 131.5234375 C-103.92672758 124.52984701 -95.49020179 120.25274355 -84.9375 120.58984375 C-76.9422286 121.70620478 -69.68279653 125.09988103 -64.3359375 131.203125 C-59.35475789 137.90295723 -58.92600232 144.81866476 -60 153 C-61.20705479 156.22490902 -62.0828834 156.78299138 -65 159 C-68.27910797 160.30163064 -71.55785977 161.23805051 -75 162 C-73.16784408 164.40230235 -72.20514903 164.96334595 -69.1796875 165.50390625 C-61.03570967 165.64830302 -55.97391081 164.66842673 -50 159 C-37.66592242 146.37959561 -35.62526209 130.81173106 -35.8125 113.8125 C-35.81314453 112.68908203 -35.81378906 111.56566406 -35.81445312 110.40820312 C-35.84169053 105.25428013 -36.03129563 100.29641536 -36.77075195 95.18823242 C-37.32458493 89.90175218 -37.18468186 84.55936916 -37.1875 79.25 C-37.19974609 78.05117187 -37.21199219 76.85234375 -37.22460938 75.6171875 C-37.24257211 64.57609132 -36.05548445 54.38928844 -31.875 44.125 C-31.56788086 43.36034424 -31.26076172 42.59568848 -30.94433594 41.80786133 C-24.05362053 25.12516815 -13.96832559 11.41608832 0 0 Z " fill="#009B8D" transform="translate(135,27)"/>
<path d="M0 0 C0.99 0.99 0.99 0.99 2 2 C-2.03675715 1.56122205 -5.6434426 0.83942034 -9.5 -0.4375 C-35.96373746 -8.49511559 -68.22798527 -5.1530406 -94 4 C-94.64372559 4.22558594 -95.28745117 4.45117188 -95.95068359 4.68359375 C-138.30114729 19.80799642 -163.14497603 53.99090398 -182 93 C-183.00522579 95.33108678 -184.00514655 97.66446771 -185 100 C-186.88427244 104.08652927 -188.82194506 108.14688899 -190.76831055 112.20410156 C-191.37525483 113.47247808 -191.97916006 114.74231387 -192.57983398 116.01367188 C-196.384276 124.06447016 -200.49379339 131.72373208 -205.27514648 139.23974609 C-206.76163079 141.61854178 -208.10145632 144.00312838 -209.375 146.5 C-211.61196008 150.62031135 -214.3435446 154.28618826 -217.1875 158 C-217.62819824 158.57685547 -218.06889648 159.15371094 -218.52294922 159.74804688 C-221.74097803 163.87048902 -221.74097803 163.87048902 -224 165 C-223.54636829 163.41531323 -223.08688548 161.83230076 -222.625 160.25 C-222.36976563 159.36828125 -222.11453125 158.4865625 -221.8515625 157.578125 C-221 155 -221 155 -220.0234375 153.21484375 C-218.41538386 149.73481926 -217.78649224 146.05141038 -217 142.3125 C-216.66666667 140.76692708 -216.33333333 139.22135417 -216 137.67578125 C-215.8352417 136.89058105 -215.6704834 136.10538086 -215.50073242 135.29638672 C-215.18981275 133.87049181 -214.85785168 132.44880705 -214.4934082 131.03564453 C-212.65083546 123.70988165 -212.1425296 116.2042192 -211.42578125 108.70550537 C-210.01415273 94.15857223 -208.21163116 80.04476487 -204 66 C-203.71769531 64.98808594 -203.43539062 63.97617188 -203.14453125 62.93359375 C-198.47172455 48.21315573 -189.44245197 35.17136364 -179 24 C-178.34644531 23.26652344 -177.69289062 22.53304687 -177.01953125 21.77734375 C-171.16283569 15.49606898 -164.08725942 10.77421835 -157 6 C-156.18917969 5.443125 -155.37835938 4.88625 -154.54296875 4.3125 C-109.67125838 -24.60657078 -46.57073264 -24.20108298 0 0 Z " fill="#009B8D" transform="translate(350,17)"/>
<path d="M0 0 C1.24523437 0.02707031 2.49046875 0.05414063 3.7734375 0.08203125 C4.71445312 0.11683594 5.65546875 0.15164062 6.625 0.1875 C3.54461486 6.74244278 -1.08985615 12.27986642 -6.375 17.1875 C-6.86742187 17.71988281 -7.35984375 18.25226563 -7.8671875 18.80078125 C-16.38609709 27.33862175 -28.61547447 31.83636251 -40.5625 31.9375 C-48.81887304 31.78616301 -55.87743385 29.56261016 -63.375 26.1875 C-61.93750189 23.31250379 -59.81330922 23.15753461 -56.90478516 22.18432617 C-56.15245605 21.93787354 -55.40012695 21.6914209 -54.625 21.4375 C-46.94636536 18.82069163 -39.68098391 15.72343475 -32.375 12.1875 C-30.7702944 11.42807282 -29.16476452 10.67038595 -27.55859375 9.9140625 C-24.25764726 8.35854885 -20.95720063 6.80205183 -17.66015625 5.23828125 C-16.54785645 4.71512329 -16.54785645 4.71512329 -15.41308594 4.18139648 C-13.66537487 3.32910471 -11.9617043 2.3875213 -10.26953125 1.4296875 C-6.67057354 -0.11480447 -3.89864725 -0.11033907 0 0 Z " fill="#009B8D" transform="translate(333.375,187.8125)"/>
<path d="M0 0 C0.66 0 1.32 0 2 0 C2.49684997 16.47248732 2.59699416 29.01875156 -5.75 43.5625 C-9.64064763 50.55063747 -10.30379096 55.96795288 -8.3046875 63.68359375 C-7.61428948 65.83187107 -6.86425402 67.91653048 -6 70 C-19.28641801 68.23891367 -31.28638426 59.18379366 -39.59765625 48.9140625 C-45 41.65376984 -45 41.65376984 -45 39 C-42.19831869 40.32488913 -39.73939163 41.81250024 -37.2421875 43.64453125 C-36.53827881 44.15467773 -35.83437012 44.66482422 -35.10913086 45.19042969 C-34.37186768 45.72571289 -33.63460449 46.26099609 -32.875 46.8125 C-26.83397238 51.14898657 -20.88167145 55.09177521 -14 58 C-14.05220703 57.14728516 -14.05220703 57.14728516 -14.10546875 56.27734375 C-14.35045553 49.28938761 -12.91895375 44.59318075 -8.6875 38.875 C-6.67594207 36.178364 -6.67594207 36.178364 -7.5 33.5 C-12.95766871 24.20419598 -12.95766871 24.20419598 -22 19 C-25.58430945 18.75917126 -25.58430945 18.75917126 -29.3125 18.875 C-30.56675781 18.89304688 -31.82101562 18.91109375 -33.11328125 18.9296875 C-34.54220703 18.96449219 -34.54220703 18.96449219 -36 19 C-35 17 -35 17 -32.8828125 16.1484375 C-19.63176448 12.43213791 -19.63176448 12.43213791 -13 14 C-9.5037213 16.23782134 -6.62042737 18.77784487 -4 22 C-4 22.66 -4 23.32 -4 24 C-3.34 24 -2.68 24 -2 24 C-2.020625 22.8553125 -2.04125 21.710625 -2.0625 20.53125 C-2.0625 16.12498067 -1.59749726 11.86011517 -1 7.5 C-0.85691406 6.40945312 -0.85691406 6.40945312 -0.7109375 5.296875 C-0.47853833 3.53064133 -0.23993362 1.76522594 0 0 Z " fill="#009B8D" transform="translate(418,163)"/>
<path d="M0 0 C0.33 0.99 0.66 1.98 1 3 C2.093125 3.103125 3.18625 3.20625 4.3125 3.3125 C9.05988024 4.19760479 9.05988024 4.19760479 11 7 C12.24133624 10.72400871 12.54111486 14.13176 12 18 C9.98497111 21.75212276 8.54533858 23.63644095 5 26 C1.91285916 26.60124091 -0.91712977 26.63820822 -4 26 C-6.79760068 23.85911309 -8.42839452 21.14321095 -10 18 C-10.34778836 12.69622758 -10.54675509 9.23322381 -7 5 C-4.73784236 3.18021985 -2.4289572 1.60402834 0 0 Z " fill="#009B8D" transform="translate(279,238)"/>
<path d="M0 0 C3.02754102 0.20094299 4.08047295 1.07691463 6.296875 3.1953125 C15.68419695 14.40628617 25.97441872 28.73410674 25 44 C23.82042636 41.69164775 22.71883318 39.37126835 21.66015625 37.00390625 C15.35256155 23.41713137 6.78145234 13.66351497 -5.34765625 4.92578125 C-8 3 -8 3 -10 1 C-7 1 -4 1 -1 1 C-0.67 0.67 -0.34 0.34 0 0 Z " fill="#009B8D" transform="translate(231,473)"/>
<path d="M0 0 C2 2 2 2 2.4375 5.375 C2 9 2 9 -0.0625 11.25 C-3.86487144 13.51524256 -7.75570764 15.26971439 -11.96875 16.640625 C-14.13684979 17.34920245 -14.13684979 17.34920245 -17 19 C-18.05749557 22.08369887 -18.05749557 22.08369887 -18 25 C-20.77042109 22.22957891 -20.39796106 20.23466195 -20.625 16.375 C-20.69976562 15.18648438 -20.77453125 13.99796875 -20.8515625 12.7734375 C-20.90054687 11.85820312 -20.94953125 10.94296875 -21 10 C-20.20335937 9.89042969 -19.40671875 9.78085937 -18.5859375 9.66796875 C-10.36988691 8.55778525 -10.36988691 8.55778525 -3 5 C-1.11868431 2.45211147 -1.11868431 2.45211147 0 0 Z " fill="#009B8D" transform="translate(427,257)"/>
<path d="M0 0 C0.66 0 1.32 0 2 0 C-1.73231815 12.73379132 -7.84816982 23.6249434 -16 34 C-17.98 33.34 -19.96 32.68 -22 32 C-21.154375 31.01 -20.30875 30.02 -19.4375 29 C-18.88578125 28.34773438 -18.3340625 27.69546875 -17.765625 27.0234375 C-16.66796893 25.76550421 -15.53708549 24.53488114 -14.359375 23.3515625 C-7.88220485 16.6625223 -4.13108726 8.24343944 0 0 Z " fill="#ECECEC" transform="translate(238,133)"/>
<path d="M0 0 C-0.99 0 -1.98 0 -3 0 C-2.34 1.32 -1.68 2.64 -1 4 C-1.56807373 4.15033691 -2.13614746 4.30067383 -2.72143555 4.45556641 C-13.14033701 7.24222498 -23.08630664 10.02131822 -32.69921875 14.99609375 C-33.45847656 15.32738281 -34.21773437 15.65867188 -35 16 C-35.66 15.67 -36.32 15.34 -37 15 C-31.30367475 10.49497354 -25.44829915 7.07179292 -18.8125 4.1875 C-17.81573242 3.75328735 -17.81573242 3.75328735 -16.79882812 3.31030273 C-4.59591899 -1.83836759 -4.59591899 -1.83836759 0 0 Z " fill="#E1E0E0" transform="translate(278,186)"/>
<path d="M0 0 C-2.97278233 2.97278233 -6.70994749 3.29958404 -10.6875 4.25 C-23.42402896 7.446166 -35.11940969 12.41785154 -47 18 C-47 17.34 -47 16.68 -47 16 C-47.66 15.67 -48.32 15.34 -49 15 C-40.50813928 11.04103597 -32.00802251 7.49892453 -23.0625 4.6875 C-21.91140747 4.32470947 -21.91140747 4.32470947 -20.73706055 3.95458984 C-6.45240376 -0.41628411 -6.45240376 -0.41628411 0 0 Z " fill="#BCBBBB" transform="translate(204,274)"/>
<path d="M0 0 C0.928125 0.2784375 0.928125 0.2784375 1.875 0.5625 C4.04160178 1.23686176 4.04160178 1.23686176 6 0 C16.64647047 18.87196271 16.64647047 18.87196271 16 29 C14.80359721 26.63637497 13.65042079 24.25933481 12.51953125 21.86328125 C9.3150665 15.19770126 6.12892866 9.33536274 1.28515625 3.671875 C0 2 0 2 0 0 Z " fill="#009B8D" transform="translate(240,488)"/>
<path d="M0 0 C-0.99 0.33 -1.98 0.66 -3 1 C-1.73025028 5.41522109 -1.73025028 5.41522109 1 9 C-2.60352128 9 -4.01400788 7.91409751 -7 6 C-10.00313748 4.49843126 -12.79067522 4.90718796 -16.125 4.9375 C-17.40632813 4.94652344 -18.68765625 4.95554688 -20.0078125 4.96484375 C-20.99523437 4.97644531 -21.98265625 4.98804688 -23 5 C-22 3 -22 3 -19.8828125 2.1484375 C-13.10959666 0.24886705 -7.02107313 -0.36667113 0 0 Z " fill="#009B8D" transform="translate(405,177)"/>
<path d="M0 0 C-1.52724966 4.03630268 -4.03756731 5.78985046 -7.5 8.25 C-8.4796875 8.95640625 -9.459375 9.6628125 -10.46875 10.390625 C-13 12 -13 12 -15 12 C-15 11.34 -15 10.68 -15 10 C-15.99 10.33 -16.98 10.66 -18 11 C-16.66570459 6.99711376 -14.13368549 5.88170801 -10.6875 3.8125 C-10.10548828 3.44447266 -9.52347656 3.07644531 -8.92382812 2.69726562 C-5.58114192 0.65682637 -4.02160875 0 0 0 Z " fill="#E5E3E4" transform="translate(157,290)"/>
<path d="M0 0 C0.66 0 1.32 0 2 0 C2 8.25 2 16.5 2 25 C1.01 25.33 0.02 25.66 -1 26 C-2.57990392 17.11837794 -1.32346258 8.81579205 0 0 Z " fill="#009B8D" transform="translate(418,163)"/>
<path d="M0 0 C0.33 0 0.66 0 1 0 C1.08824695 4.27069964 1.14080654 8.54115989 1.1875 12.8125 C1.21263672 14.00810547 1.23777344 15.20371094 1.26367188 16.43554688 C1.32645278 24.11574453 0.47934068 30.72037252 -2 38 C-2.33 38 -2.66 38 -3 38 C-3.68569242 25.22580421 -1.66574148 12.63334962 0 0 Z " fill="#009B8D" transform="translate(291,327)"/>
<path d="M0 0 C2.93878955 4.40818433 2.81841173 8.82732002 2 14 C-0.5 16.1875 -0.5 16.1875 -3 17 C-6.125 10.375 -6.125 10.375 -5 7 C-4.34 6.525625 -3.68 6.05125 -3 5.5625 C-0.70810365 3.77195598 -0.38878998 2.81872737 0 0 Z " fill="#009B8D" transform="translate(273,589)"/>
<path d="M0 0 C0.66 0.33 1.32 0.66 2 1 C1.57589844 1.37769531 1.15179688 1.75539063 0.71484375 2.14453125 C-4.60410239 7.13615763 -8.28346361 12.75305585 -12 19 C-13.65 18.67 -15.3 18.34 -17 18 C-12.30677875 10.91066157 -6.37701659 5.53733825 0 0 Z " fill="#009B8D" transform="translate(135,27)"/>
<path d="M0 0 C0.33 1.32 0.66 2.64 1 4 C2.32 4.33 3.64 4.66 5 5 C5 5.66 5 6.32 5 7 C9.29 7 13.58 7 18 7 C18 7.33 18 7.66 18 8 C7.93160697 9.86246831 1.19315723 7.93021071 -8 4 C-6.4425489 0.88509781 -3.40085499 0 0 0 Z " fill="#009B8D" transform="translate(278,210)"/>
<path d="M0 0 C5.78783129 -0.61916335 8.98933753 1.31515599 13.6875 4.3125 C14.68233398 4.91868164 14.68233398 4.91868164 15.69726562 5.53710938 C18.81588357 7.46857971 21.46289385 9.32746626 24 12 C20.38606692 11.41584531 17.57523816 10.44519602 14.35546875 8.71484375 C13.51435547 8.26689453 12.67324219 7.81894531 11.80664062 7.35742188 C10.94232422 6.88884766 10.07800781 6.42027344 9.1875 5.9375 C8.30384766 5.46505859 7.42019531 4.99261719 6.50976562 4.50585938 C4.33668422 3.34296716 2.16697716 2.17421625 0 1 C0 0.67 0 0.34 0 0 Z " fill="#009B8D" transform="translate(179,548)"/>
<path d="M0 0 C0.66 0.33 1.32 0.66 2 1 C0.87548273 3.9719385 -0.22293791 6.33440687 -2 9 C-0.68 9 0.64 9 2 9 C2 9.66 2 10.32 2 11 C-1.96 11.66 -5.92 12.32 -10 13 C-6.72803436 8.61259153 -3.45187242 4.24845837 0 0 Z " fill="#009B8D" transform="translate(134,186)"/>
<path d="M0 0 C0.99 0.99 1.98 1.98 3 3 C2.360625 3.639375 1.72125 4.27875 1.0625 4.9375 C-1.65791686 8.97690686 -1.69236823 12.24789877 -2 17 C-2.17353184 18.3560274 -2.35957178 19.71055927 -2.5625 21.0625 C-2.706875 22.031875 -2.85125 23.00125 -3 24 C-5.80652431 21.19347569 -5.36616611 19.29416805 -5.4375 15.375 C-5.37767211 8.91358769 -4.23572664 4.87108564 0 0 Z " fill="#009B8D" transform="translate(410,200)"/>
<path d="M0 0 C3.15543521 1.36303897 4.93188133 2.8182613 7.0625 5.5 C9.00872186 7.93664912 10.33393182 9.22262121 13 11 C13 11.66 13 12.32 13 13 C13.99 13.33 14.98 13.66 16 14 C15.01 14.66 14.02 15.32 13 16 C10.82404478 13.90474642 8.65936733 11.79972937 6.5 9.6875 C5.87996094 9.09259766 5.25992187 8.49769531 4.62109375 7.88476562 C4.03457031 7.30791016 3.44804687 6.73105469 2.84375 6.13671875 C2.02680664 5.34334106 2.02680664 5.34334106 1.19335938 4.53393555 C0 3 0 3 0 0 Z " fill="#009B8D" transform="translate(311,448)"/>
<path d="M0 0 C0.33 0 0.66 0 1 0 C1.0501123 0.60884033 1.10022461 1.21768066 1.15185547 1.8449707 C2.35922625 17.52025071 2.35922625 17.52025071 5 33 C3.02 33.495 3.02 33.495 1 34 C0.34 33.01 -0.32 32.02 -1 31 C-0.34 31 0.32 31 1 31 C1.13886873 26.40322414 1.13886873 26.40322414 0.5 21.875 C-0.23529262 17.64706745 -0.10400983 13.46939879 -0.0625 9.1875 C-0.05798828 8.30384766 -0.05347656 7.42019531 -0.04882812 6.50976562 C-0.03709866 4.33981441 -0.01916495 2.16989828 0 0 Z " fill="#009B8D" transform="translate(27,197)"/>
<path d="M0 0 C1.32 0.66 2.64 1.32 4 2 C4.66 1.34 5.32 0.68 6 0 C5.39686073 4.42026724 3.72418757 7.684046 1.5625 11.5625 C-1.31124903 16.73280187 -1.31124903 16.73280187 -4 22 C-3.63060686 12.32189974 -3.63060686 12.32189974 1 8 C0.84239972 4.88695186 0.84239972 4.88695186 0 2 C0 1.34 0 0.68 0 0 Z " fill="#009B8D" transform="translate(411,195)"/>
<path d="M0 0 C-3.37862805 2.2524187 -6.62329097 3.09147669 -10.5 4.0625 C-15.7853046 5.40687048 -15.7853046 5.40687048 -21 7 C-21 6.34 -21 5.68 -21 5 C-21.66 4.67 -22.32 4.34 -23 4 C-7.25512528 -0.59225513 -7.25512528 -0.59225513 0 0 Z " fill="#D4D3D4" transform="translate(208,304)"/>
<path d="M0 0 C0.66 0.99 1.32 1.98 2 3 C1.01 4.98 0.02 6.96 -1 9 C-1.66 9 -2.32 9 -3 9 C-6.11332248 9.66868314 -6.11332248 9.66868314 -7.1875 12.0625 C-7.455625 12.701875 -7.72375 13.34125 -8 14 C-8.99 13.34 -9.98 12.68 -11 12 C-7.37 8.04 -3.74 4.08 0 0 Z " fill="#009B8D" transform="translate(213,67)"/>
<path d="M0 0 C1.75 0.0625 1.75 0.0625 4 1 C6.00840495 3.70049044 8 6.55126733 8 10 C4.01328937 8.63312778 1.11505367 6.84804907 -2 4 C-2 3.34 -2 2.68 -2 2 C-1.34 2 -0.68 2 0 2 C0 1.34 0 0.68 0 0 Z " fill="#009B8D" transform="translate(30,231)"/>
<path d="M0 0 C1.51400391 0.01740234 1.51400391 0.01740234 3.05859375 0.03515625 C4.07050781 0.04417969 5.08242188 0.05320312 6.125 0.0625 C7.29869141 0.07990234 7.29869141 0.07990234 8.49609375 0.09765625 C5.57260617 3.38095769 2.7415188 4.05632558 -1.50390625 5.09765625 C-1.50390625 7.73765625 -1.50390625 10.37765625 -1.50390625 13.09765625 C-1.83390625 13.09765625 -2.16390625 13.09765625 -2.50390625 13.09765625 C-2.69788101 11.11911367 -2.88391946 9.13979145 -3.06640625 7.16015625 C-3.17082031 6.05800781 -3.27523438 4.95585937 -3.3828125 3.8203125 C-3.42277344 2.92183594 -3.46273438 2.02335937 -3.50390625 1.09765625 C-2.50390625 0.09765625 -2.50390625 0.09765625 0 0 Z " fill="#009B8D" transform="translate(394.50390625,307.90234375)"/>
<path d="M0 0 C0.66 0.33 1.32 0.66 2 1 C1.38545304 4.99455527 -0.70646737 7.74466336 -3 11 C-6.00617269 7.99382731 -5.59585316 5.17618402 -6 1 C-5.67 1.66 -5.34 2.32 -5 3 C-3.35 2.67 -1.7 2.34 0 2 C0 1.34 0 0.68 0 0 Z " fill="#009B8D" transform="translate(138,161)"/>
<path d="M0 0 C0.33 0 0.66 0 1 0 C3.03099549 16.388726 3.03099549 16.388726 -1.67578125 23.49609375 C-3 25 -3 25 -5 26 C-4.01 21.71 -3.02 17.42 -2 13 C-1.67 13 -1.34 13 -1 13 C-0.67 8.71 -0.34 4.42 0 0 Z " fill="#009B8D" transform="translate(396,542)"/>
<path d="M0 0 C0.33 0 0.66 0 1 0 C1.33 3.3 1.66 6.6 2 10 C-0.40545638 11.20272819 -1.94996953 11.10071472 -4.625 11.0625 C-5.85089844 11.04896484 -5.85089844 11.04896484 -7.1015625 11.03515625 C-8.04128906 11.01775391 -8.04128906 11.01775391 -9 11 C-9 8 -9 8 -7 5.8125 C-6.34 5.214375 -5.68 4.61625 -5 4 C-3 5 -3 5 -2 7 C-1.34 7.33 -0.68 7.66 0 8 C0 5.36 0 2.72 0 0 Z " fill="#009B8D" transform="translate(403,298)"/>
<path d="M0 0 C5.62541841 0.45003347 8.61487125 1.68441485 13 5 C12.01 5.495 12.01 5.495 11 6 C10.34 5.67 9.68 5.34 9 5 C9 5.66 9 6.32 9 7 C8.01 7.33 7.02 7.66 6 8 C6 7.34 6 6.68 6 6 C5.34 6 4.68 6 4 6 C4 5.34 4 4.68 4 4 C3.34 4 2.68 4 2 4 C2 3.34 2 2.68 2 2 C1.34 2 0.68 2 0 2 C0 1.34 0 0.68 0 0 Z " fill="#009B8D" transform="translate(386,214)"/>
<path d="M0 0 C2 2 2 2 2 6 C0.50390625 7.4140625 0.50390625 7.4140625 -1.4375 8.625 C-4.23991203 10.32383142 -4.23991203 10.32383142 -6 13 C-6.66 12.67 -7.32 12.34 -8 12 C-6.59023295 8.96147295 -4.91129772 6.4060405 -2.875 3.75 C-2.06675781 2.69039062 -2.06675781 2.69039062 -1.2421875 1.609375 C-0.83226563 1.07828125 -0.42234375 0.5471875 0 0 Z " fill="#009B8D" transform="translate(92,177)"/>
<path d="M0 0 C3.50720883 1.94844935 6.58701191 3.7517468 9 7 C8.9375 10.125 8.9375 10.125 8 13 C7.01 13.66 6.02 14.32 5 15 C5 13.68 5 12.36 5 11 C5.66 11 6.32 11 7 11 C3.97263027 5.89386809 3.97263027 5.89386809 -1 3 C-0.67 2.01 -0.34 1.02 0 0 Z " fill="#009B8D" transform="translate(405,178)"/>
<path d="M0 0 C0.99 0.66 1.98 1.32 3 2 C2.63076923 8.4 2.63076923 8.4 -0.5625 11.4375 C-1.7690625 12.2109375 -1.7690625 12.2109375 -3 13 C-3.93423645 9.98968256 -4.04449911 9.13349732 -3 6 C-2.34 6 -1.68 6 -1 6 C-0.67 4.02 -0.34 2.04 0 0 Z " fill="#009B8D" transform="translate(271,584)"/>
<path d="M0 0 C0.99 0 1.98 0 3 0 C3 0.66 3 1.32 3 2 C3.66 2.33 4.32 2.66 5 3 C5.99 4.485 5.99 4.485 7 6 C9.55183404 7.20450304 9.55183404 7.20450304 12 8 C11.67 8.99 11.34 9.98 11 11 C5.33764586 9.68317346 3.21572253 7.63442365 0 3 C0 2.01 0 1.02 0 0 Z " fill="#009B8D" transform="translate(233,479)"/>
<path d="M0 0 C1.32 0.33 2.64 0.66 4 1 C4.66 3.31 5.32 5.62 6 8 C2.26512223 7.5020163 0.18762365 7.12508244 -3 5 C-3 4.34 -3 3.68 -3 3 C-2.34 3 -1.68 3 -1 3 C-0.67 2.01 -0.34 1.02 0 0 Z " fill="#009B8D" transform="translate(406,225)"/>
<path d="M0 0 C2.1519437 3.22791555 2.20086443 4.28400809 2 8 C1.01 8 0.02 8 -1 8 C-1.33 7.01 -1.66 6.02 -2 5 C-3.87387216 4.19787372 -3.87387216 4.19787372 -6.0625 3.8125 C-6.79597656 3.65394531 -7.52945312 3.49539063 -8.28515625 3.33203125 C-8.85105469 3.22246094 -9.41695313 3.11289062 -10 3 C-6.26223701 0.50815801 -4.5227786 0 0 0 Z " fill="#009B8D" transform="translate(410,287)"/>
<path d="M0 0 C0.66 0.33 1.32 0.66 2 1 C0.44000455 5.21198772 -2.55248619 7.27071823 -6 10 C-6.66 10.66 -7.32 11.32 -8 12 C-8.33 11.01 -8.66 10.02 -9 9 C-6.34691575 5.36148445 -3.76827587 2.51218391 0 0 Z " fill="#009B8D" transform="translate(29,154)"/>
<path d="M0 0 C0.66 0 1.32 0 2 0 C0.06375702 6.20477864 -2.25609141 12.10825719 -5 18 C-6.2109375 16.453125 -6.2109375 16.453125 -7 14 C-5.99212459 11.39484836 -4.96372907 9.17152464 -3.625 6.75 C-3.11066406 5.77546875 -3.11066406 5.77546875 -2.5859375 4.78125 C-1.73816328 3.17989869 -0.87091321 1.58888556 0 0 Z " fill="#CBC9CA" transform="translate(238,133)"/>
<path d="M0 0 C0.66 0 1.32 0 2 0 C-0.86649697 6.77535649 -6.9609723 12.97398153 -13 17 C-11.73652109 12.367244 -9.11965158 9.92007437 -5.74609375 6.71484375 C-3.80775613 4.88390295 -3.80775613 4.88390295 -1.6875 2.0625 C-1.130625 1.381875 -0.57375 0.70125 0 0 Z " fill="#D2D2D2" transform="translate(140,23)"/>
<path d="M0 0 C0.99 0.33 1.98 0.66 3 1 C3 1.66 3 2.32 3 3 C3.66 3 4.32 3 5 3 C6.2890625 4.53125 6.2890625 4.53125 7.625 6.5 C8.07101563 7.1496875 8.51703125 7.799375 8.9765625 8.46875 C9.48316406 9.22671875 9.48316406 9.22671875 10 10 C9.34 10.66 8.68 11.32 8 12 C5.03 8.7 2.06 5.4 -1 2 C-0.67 1.34 -0.34 0.68 0 0 Z " fill="#009B8D" transform="translate(116,417)"/>
<path d="M0 0 C3.40686225 3.40686225 4.76723573 8.38733985 5.19140625 13.1484375 C5.18810331 14.76687972 5.10309523 16.38484134 5 18 C4.33207339 16.66729738 3.66577881 15.33377689 3 14 C2.55140625 13.11183594 2.1028125 12.22367187 1.640625 11.30859375 C1.18171875 10.36113281 0.7228125 9.41367187 0.25 8.4375 C-0.45382813 7.01244141 -0.45382813 7.01244141 -1.171875 5.55859375 C-1.58179688 4.29208984 -1.58179688 4.29208984 -2 3 C-1.34 2.01 -0.68 1.02 0 0 Z " fill="#009B8D" transform="translate(251,499)"/>
<path d="M0 0 C0.54140625 0.32742188 1.0828125 0.65484375 1.640625 0.9921875 C4.50719067 2.21664767 6.6452987 2.19892146 9.75 2.125 C10.73484375 2.10695313 11.7196875 2.08890625 12.734375 2.0703125 C13.48203125 2.04710937 14.2296875 2.02390625 15 2 C12.76726097 4.7479865 11.60907583 5.89632752 8.0625 6.5 C4.33014001 5.8906351 2.65172446 4.65172446 0 2 C0 1.34 0 0.68 0 0 Z " fill="#CDCDCD" transform="translate(271,256)"/>
<path d="M0 0 C3.3 0.33 6.6 0.66 10 1 C9 3 9 3 8 4 C8 4.66 8 5.32 8 6 C7.01 6.33 6.02 6.66 5 7 C3.29115995 5.37660195 1.62553283 3.70680947 0 2 C0 1.34 0 0.68 0 0 Z " fill="#009B8D" transform="translate(380,212)"/>
<path d="M0 0 C4.31457305 0.319598 6.90647504 3.25801197 10 6 C8.68 7.32 7.36 8.64 6 10 C5.67 9.01 5.34 8.02 5 7 C5.33 6.34 5.66 5.68 6 5 C4.35 5 2.7 5 1 5 C1 4.01 1 3.02 1 2 C0.34 1.67 -0.32 1.34 -1 1 C-0.67 0.67 -0.34 0.34 0 0 Z " fill="#009B8D" transform="translate(222,466)"/>
<path d="M0 0 C1.01527342 4.06109369 1.05430484 4.66966838 -0.4375 8.25 C-0.72496094 8.95640625 -1.01242188 9.6628125 -1.30859375 10.390625 C-1.53675781 10.92171875 -1.76492187 11.4528125 -2 12 C-3.65 11.67 -5.3 11.34 -7 11 C-4.69 7.37 -2.38 3.74 0 0 Z " fill="#009B8D" transform="translate(231,153)"/>
<path d="M0 0 C-1.1350741 3.40522231 -2.63177302 4.48951404 -5.3828125 6.66796875 C-7.23930041 8.14827273 -7.23930041 8.14827273 -9.625 10.6875 C-11.77385755 12.77980867 -13.33534757 13.76886312 -16 15 C-3.5 0 -3.5 0 0 0 Z " fill="#E6E5E5" transform="translate(198,373)"/>
<path d="M0 0 C0.66 0.66 1.32 1.32 2 2 C-2.1157286 7.6997891 -6.07737367 13.05158245 -12 17 C-10.25477062 12.94785821 -7.5771843 9.69396039 -4.875 6.25 C-4.40707031 5.64800781 -3.93914062 5.04601562 -3.45703125 4.42578125 C-2.30774993 2.94813384 -1.15428765 1.47373995 0 0 Z " fill="#E3E2E3" transform="translate(217,347)"/>
<path d="M0 0 C-1 3 -1 3 -2.84765625 4.16796875 C-3.57855469 4.50441406 -4.30945313 4.84085937 -5.0625 5.1875 C-5.79597656 5.53167969 -6.52945313 5.87585938 -7.28515625 6.23046875 C-8.13400391 6.61138672 -8.13400391 6.61138672 -9 7 C-9 5.33333333 -9 3.66666667 -9 2 C-5.62902617 0.50178941 -3.79557881 0 0 0 Z " fill="#E6E5E6" transform="translate(187,309)"/>
<path d="M0 0 C-1.90790032 0.89395329 -3.82673806 1.76459334 -5.75 2.625 C-6.81734375 3.11226563 -7.8846875 3.59953125 -8.984375 4.1015625 C-12 5 -12 5 -14.390625 4.1484375 C-14.92171875 3.76945312 -15.4528125 3.39046875 -16 3 C-14.08802961 2.29954544 -12.17019565 1.615081 -10.25 0.9375 C-9.18265625 0.55464844 -8.1153125 0.17179687 -7.015625 -0.22265625 C-4.07719958 -0.98010011 -2.77651052 -1.07151741 0 0 Z " fill="#CDCBCC" transform="translate(184,280)"/>
<path d="M0 0 C0.66 0 1.32 0 2 0 C2.3125 2.1875 2.3125 2.1875 2 5 C-0.3125 7.8125 -0.3125 7.8125 -3 10 C-3.99 10 -4.98 10 -6 10 C-4.34643078 6.41726669 -2.32019297 3.19026533 0 0 Z " fill="#009B8D" transform="translate(28,266)"/>
<path d="M0 0 C0.66 0.99 1.32 1.98 2 3 C1.11644276 6.8555225 0.08943092 9.47228379 -3 12 C-3.66 11.01 -4.32 10.02 -5 9 C-4.34 8.67 -3.68 8.34 -3 8 C-2.835 6.845 -2.67 5.69 -2.5 4.5 C-2.335 3.345 -2.17 2.19 -2 1 C-1.34 0.67 -0.68 0.34 0 0 Z " fill="#009B8D" transform="translate(116,177)"/>
<path d="M0 0 C5.75 1.875 5.75 1.875 8 3 C7.67 3.99 7.34 4.98 7 6 C4.69 5.34 2.38 4.68 0 4 C0 2.68 0 1.36 0 0 Z " fill="#009B8D" transform="translate(176,452)"/>
<path d="M0 0 C0.66 0.33 1.32 0.66 2 1 C2 3.31 2 5.62 2 8 C1.01 8 0.02 8 -1 8 C-1.33 8.66 -1.66 9.32 -2 10 C-2.6875 8.375 -2.6875 8.375 -3 6 C-1.5625 2.75 -1.5625 2.75 0 0 Z " fill="#009B8D" transform="translate(390,311)"/>
<path d="M0 0 C1.65454759 0.90084261 3.2984402 1.82127608 4.9375 2.75 C6.31228516 3.51570313 6.31228516 3.51570313 7.71484375 4.296875 C10 6 10 6 10.81640625 8.203125 C10.87699219 8.79609375 10.93757813 9.3890625 11 10 C9.15878785 8.90902202 7.32718744 7.80180749 5.5 6.6875 C4.4790625 6.07261719 3.458125 5.45773437 2.40625 4.82421875 C1.21515625 3.92123047 1.21515625 3.92123047 0 3 C0 2.01 0 1.02 0 0 Z " fill="#009B8D" transform="translate(108,465)"/>
<path d="M0 0 C0.99 0 1.98 0 3 0 C3 0.66 3 1.32 3 2 C3.66 2.33 4.32 2.66 5 3 C3.35 4.32 1.7 5.64 0 7 C-0.33 6.34 -0.66 5.68 -1 5 C-2.98 5.99 -2.98 5.99 -5 7 C-4.24172908 5.82512964 -3.46792245 4.66027408 -2.6875 3.5 C-2.25824219 2.8503125 -1.82898438 2.200625 -1.38671875 1.53125 C-0.70029297 0.77328125 -0.70029297 0.77328125 0 0 Z " fill="#009B8D" transform="translate(199,83)"/>
<path d="M0 0 C1.32 0 2.64 0 4 0 C4 0.66 4 1.32 4 2 C4.66 2 5.32 2 6 2 C6.33 2.66 6.66 3.32 7 4 C7.99 4.33 8.98 4.66 10 5 C10.6875 7.0625 10.6875 7.0625 11 9 C8.03469503 7.64199529 5.70868729 6.07571737 3.25 3.9375 C2.63640625 3.41027344 2.0228125 2.88304687 1.390625 2.33984375 C0.93171875 1.89769531 0.4728125 1.45554687 0 1 C0 0.67 0 0.34 0 0 Z " fill="#009B8D" transform="translate(217,533)"/>
<path d="M0 0 C0.33 0.99 0.66 1.98 1 3 C0.54109375 3.38671875 0.0821875 3.7734375 -0.390625 4.171875 C-3.725081 7.00195951 -6.96501303 9.84361355 -10 13 C-10.66 12.67 -11.32 12.34 -12 12 C-8.04 8.04 -4.08 4.08 0 0 Z " fill="#EBEAEB" transform="translate(159,324)"/>
<path d="M0 0 C0.66 0 1.32 0 2 0 C2 0.99 2 1.98 2 3 C3.32 3 4.64 3 6 3 C6 3.99 6 4.98 6 6 C6.66 6 7.32 6 8 6 C7.67 6.66 7.34 7.32 7 8 C3.76912579 7.44295272 1.97638863 6.66812465 0 4 C0 2.68 0 1.36 0 0 Z " fill="#009B8D" transform="translate(44,200)"/>
<path d="M0 0 C0.99 0.33 1.98 0.66 3 1 C1.02 3.31 -0.96 5.62 -3 8 C-3.66 7.01 -4.32 6.02 -5 5 C-3.35 3.35 -1.7 1.7 0 0 Z " fill="#009B8D" transform="translate(47,174)"/>
<path d="M0 0 C1.32 0.33 2.64 0.66 4 1 C3.75 2.875 3.75 2.875 3 5 C1.0625 6.125 1.0625 6.125 -1 7 C-1.66 7.66 -2.32 8.32 -3 9 C-3.33 8.34 -3.66 7.68 -4 7 C-3.22265625 5.2734375 -3.22265625 5.2734375 -2.0625 3.375 C-1.381875 2.26125 -0.70125 1.1475 0 0 Z " fill="#009B8D" transform="translate(183,106)"/>
<path d="M0 0 C0.33 0.66 0.66 1.32 1 2 C1.66 2.33 2.32 2.66 3 3 C1.68 4.65 0.36 6.3 -1 8 C-2.32 7.34 -3.64 6.68 -5 6 C-3.35 4.02 -1.7 2.04 0 0 Z " fill="#009B8D" transform="translate(123,38)"/>
<path d="M0 0 C2.97 0.495 2.97 0.495 6 1 C6.33 2.98 6.66 4.96 7 7 C4 7 4 7 1.8125 5.1875 C0 3 0 3 0 0 Z " fill="#009B8D" transform="translate(360,490)"/>
<path d="M0 0 C2.64 0.66 5.28 1.32 8 2 C8 2.66 8 3.32 8 4 C8.66 4.33 9.32 4.66 10 5 C8.4375 5.75 8.4375 5.75 6 6 C3.49713591 4.86915563 1.32992278 3.47860484 -1 2 C-0.67 1.34 -0.34 0.68 0 0 Z " fill="#009B8D" transform="translate(141,487)"/>
<path d="M0 0 C1.12894876 0.93274109 2.25300876 1.87140122 3.375 2.8125 C4.00148438 3.33457031 4.62796875 3.85664062 5.2734375 4.39453125 C7 6 7 6 9 9 C4.64014292 9 3.04117749 6.97359577 0 4 C0 2.68 0 1.36 0 0 Z " fill="#009B8D" transform="translate(410,64)"/>
<path d="M0 0 C-0.25 1.875 -0.25 1.875 -1 4 C-3.0625 5.25 -3.0625 5.25 -5 6 C-6.32 5.01 -7.64 4.02 -9 3 C-2.25 0 -2.25 0 0 0 Z " fill="#009B8D" transform="translate(260,38)"/>
<path d="M0 0 C1.44715727 3.87186448 0.5441918 6.8232328 -0.4375 10.75 C-0.86869141 12.50570313 -0.86869141 12.50570313 -1.30859375 14.296875 C-1.53675781 15.18890625 -1.76492187 16.0809375 -2 17 C-2.33 17 -2.66 17 -3 17 C-3 13.37 -3 9.74 -3 6 C-2.34 6 -1.68 6 -1 6 C-0.67 4.02 -0.34 2.04 0 0 Z " fill="#009B8D" transform="translate(40,330)"/>
<path d="M0 0 C0 0.99 0 1.98 0 3 C0.99 3 1.98 3 3 3 C3 3.66 3 4.32 3 5 C1.35 5.33 -0.3 5.66 -2 6 C-2.103125 5.360625 -2.20625 4.72125 -2.3125 4.0625 C-2.539375 3.381875 -2.76625 2.70125 -3 2 C-3.99 1.67 -4.98 1.34 -6 1 C-3 0 -3 0 0 0 Z " fill="#009B8D" transform="translate(421,265)"/>
<path d="M0 0 C0.33 0 0.66 0 1 0 C1 2.97 1 5.94 1 9 C1.66 9 2.32 9 3 9 C4.35439668 11.70879335 4.06501451 14.00933268 4 17 C0.75101933 12.90345916 -0.13007859 10.01605176 -0.0625 4.8125 C-0.05347656 3.91144531 -0.04445312 3.01039063 -0.03515625 2.08203125 C-0.02355469 1.39496094 -0.01195312 0.70789063 0 0 Z " fill="#009B8D" transform="translate(40,185)"/>
<path d="M0 0 C3.63 1.65 7.26 3.3 11 5 C6.87585243 6.03103689 6.0158858 5.94701684 2.25 4.5625 C1.45078125 4.27503906 0.6515625 3.98757812 -0.171875 3.69140625 C-0.77515625 3.46324219 -1.3784375 3.23507813 -2 3 C-1.34 2.01 -0.68 1.02 0 0 Z " fill="#009B8D" transform="translate(341,13)"/>
<path d="M0 0 C1.17539996 0.92652701 2.34010577 1.86663387 3.5 2.8125 C4.1496875 3.33457031 4.799375 3.85664063 5.46875 4.39453125 C7 6 7 6 7 9 C4.36 7.02 1.72 5.04 -1 3 C-0.67 2.01 -0.34 1.02 0 0 Z " fill="#009B8D" transform="translate(82,467)"/>
<path d="M0 0 C4.30764815 1.56641751 8.06171464 3.68336156 12 6 C10 7 10 7 7.125 6.3125 C3.90072473 4.95830438 2.22839029 3.65692689 0 1 C0 0.67 0 0.34 0 0 Z " fill="#009B8D" transform="translate(154,429)"/>
<path d="M0 0 C2.93200474 2.85276137 5.64315404 5.65079784 8 9 C5 9 5 9 2.875 7.875 C0.39855778 5.39855778 0.30394631 3.41939601 0 0 Z " fill="#009B8D" transform="translate(307,401)"/>
<path d="M0 0 C-1.3697164 3.99500618 -3.25722422 6.80009492 -6 10 C-5.38909774 3.52443609 -5.38909774 3.52443609 -3.5625 1.0625 C-2 0 -2 0 0 0 Z " fill="#009B8D" transform="translate(321,337)"/>
<path d="M0 0 C0.99 0.680625 0.99 0.680625 2 1.375 C5.65206954 3.35320433 8.95052557 4.10774292 13 5 C13 5.33 13 5.66 13 6 C4.85614849 6.62645012 4.85614849 6.62645012 1.4375 4.125 C0 2 0 2 0 0 Z " fill="#009B8D" transform="translate(271,258)"/>
<path d="M0 0 C2.25 1.75 2.25 1.75 3.25 3.75 C2.59 4.41 1.93 5.07 1.25 5.75 C1.25 5.09 1.25 4.43 1.25 3.75 C-0.1421875 3.2859375 -0.1421875 3.2859375 -1.5625 2.8125 C-3.625 2.125 -5.6875 1.4375 -7.75 0.75 C-4.51796354 -1.00453408 -3.44213319 -1.56460599 0 0 Z " fill="#009B8D" transform="translate(286.75,242.25)"/>
<path d="M0 0 C0.99 0 1.98 0 3 0 C1.8141763 3.37503669 0.72426311 5.64722731 -2 8 C-2.66 7.01 -3.32 6.02 -4 5 C-2.1875 2.5 -2.1875 2.5 0 0 Z " fill="#009B8D" transform="translate(222,166)"/>
<path d="M0 0 C2.1875 0.3125 2.1875 0.3125 4 1 C3.6875 2.9375 3.6875 2.9375 3 5 C2.01 5.33 1.02 5.66 0 6 C-0.99 5.01 -1.98 4.02 -3 3 C-1.75 1.4375 -1.75 1.4375 0 0 Z " fill="#009B8D" transform="translate(392,293)"/>
<path d="M0 0 C-2.625 4.875 -2.625 4.875 -6 6 C-6.33 4.35 -6.66 2.7 -7 1 C-3.375 -1.125 -3.375 -1.125 0 0 Z " fill="#009B8D" transform="translate(250,200)"/>
<path d="M0 0 C0.66 0.33 1.32 0.66 2 1 C1.34 2.32 0.68 3.64 0 5 C-2.64 5 -5.28 5 -8 5 C-5.45378681 2.99940392 -3.01962385 1.20784954 0 0 Z " fill="#009B8D" transform="translate(318,192)"/>
<path d="M0 0 C0.33 0 0.66 0 1 0 C1.3125 3.1875 1.3125 3.1875 1 7 C-1.5 9.9375 -1.5 9.9375 -4 12 C-4 9.37886292 -3.68707555 7.49064888 -3 5 C-2.01 5 -1.02 5 0 5 C0 3.35 0 1.7 0 0 Z " fill="#009B8D" transform="translate(416,182)"/>
<path d="M0 0 C0.99386719 0.02707031 1.98773438 0.05414063 3.01171875 0.08203125 C4.15060547 0.13423828 4.15060547 0.13423828 5.3125 0.1875 C5.3125 0.5175 5.3125 0.8475 5.3125 1.1875 C4.405 1.31125 3.4975 1.435 2.5625 1.5625 C-0.59353635 2.00509516 -0.59353635 2.00509516 -2.8125 3.3125 C-5.17144488 4.41334094 -6.28754452 4.04462696 -8.6875 3.1875 C-6.10291354 -0.17334451 -4.11082043 -0.14508778 0 0 Z " fill="#009B8D" transform="translate(47.6875,147.8125)"/>
<path d="M0 0 C0.66 0.33 1.32 0.66 2 1 C2 1.99 2 2.98 2 4 C2.33 4.99 2.66 5.98 3 7 C2.34 7.66 1.68 8.32 1 9 C-1 8 -1 8 -2 5 C-2.66 4.67 -3.32 4.34 -4 4 C-2.68 2.68 -1.36 1.36 0 0 Z " fill="#009B8D" transform="translate(220,61)"/>
<path d="M0 0 C-1.39332574 3.36720387 -2.9789286 4.9859524 -6 7 C-6 3 -6 3 -4.6875 1.25 C-3 0 -3 0 0 0 Z " fill="#009B8D" transform="translate(120,314)"/>
<path d="M0 0 C0.99 0.33 1.98 0.66 3 1 C2.525625 1.37125 2.05125 1.7425 1.5625 2.125 C-0.52205802 4.62646962 -0.64621491 6.81593418 -1 10 C-1.66 9.34 -2.32 8.68 -3 8 C-2.75 4.4375 -2.75 4.4375 -2 1 C-1.34 0.67 -0.68 0.34 0 0 Z " fill="#009B8D" transform="translate(410,272)"/>
<path d="M0 0 C0.66 0 1.32 0 2 0 C1.67 1.98 1.34 3.96 1 6 C-0.98 6.33 -2.96 6.66 -5 7 C-4.21654285 5.82780457 -3.42297164 4.66236332 -2.625 3.5 C-2.18414062 2.8503125 -1.74328125 2.200625 -1.2890625 1.53125 C-0.65097656 0.77328125 -0.65097656 0.77328125 0 0 Z " fill="#009B8D" transform="translate(129,192)"/>
<path d="M0 0 C0.66 0.99 1.32 1.98 2 3 C-0.97 5.475 -0.97 5.475 -4 8 C-4 6.68 -4 5.36 -4 4 C-3.34 4 -2.68 4 -2 4 C-1.34 2.68 -0.68 1.36 0 0 Z " fill="#009B8D" transform="translate(158,321)"/>
<path d="M0 0 C-3.49592778 2.33061852 -5.84130536 2.70295038 -10 3 C-10.99 2.34 -11.98 1.68 -13 1 C-8.59085217 -0.10228696 -4.51617599 -0.07654536 0 0 Z " fill="#A4A3A4" transform="translate(208,304)"/>
<path d="M0 0 C0.66 0.33 1.32 0.66 2 1 C1.01 1.8971875 1.01 1.8971875 0 2.8125 C-2.3373846 4.87501834 -2.3373846 4.87501834 -2 8 C-2.66 8 -3.32 8 -4 8 C-4 7.34 -4 6.68 -4 6 C-4.99 6.33 -5.98 6.66 -7 7 C-5.66667905 3.00003714 -3.5042173 2.16217663 0 0 Z " fill="#E2E1E2" transform="translate(146,294)"/>
<path d="M0 0 C-0.1875 1.8125 -0.1875 1.8125 -1 4 C-3.5625 5.75 -3.5625 5.75 -6 7 C-6.33 6.01 -6.66 5.02 -7 4 C-2.25 0 -2.25 0 0 0 Z " fill="#EDEDED" transform="translate(150,294)"/>
<path d="M0 0 C0 1.66666667 0 3.33333333 0 5 C-1.65 4.67 -3.3 4.34 -5 4 C-5.33 2.68 -5.66 1.36 -6 0 C-3 -1 -3 -1 0 0 Z " fill="#009B8D" transform="translate(426,264)"/>
<path d="M0 0 C0.99 0.33 1.98 0.66 3 1 C2.67 1.99 2.34 2.98 2 4 C1.34 4 0.68 4 0 4 C0 4.66 0 5.32 0 6 C-1.32 5.67 -2.64 5.34 -4 5 C-3.34 4.67 -2.68 4.34 -2 4 C-2 3.01 -2 2.02 -2 1 C-1.34 0.67 -0.68 0.34 0 0 Z " fill="#009B8D" transform="translate(161,533)"/>
<path d="M0 0 C0.33 0.99 0.66 1.98 1 3 C-0.65 4.65 -2.3 6.3 -4 8 C-4.66 7.34 -5.32 6.68 -6 6 C-5.34 6 -4.68 6 -4 6 C-3.71125 5.38125 -3.4225 4.7625 -3.125 4.125 C-2 2 -2 2 0 0 Z " fill="#009B8D" transform="translate(199,366)"/>
<path d="M0 0 C0.66 0 1.32 0 2 0 C2.6875 1.8125 2.6875 1.8125 3 4 C1.6875 5.75 1.6875 5.75 0 7 C-0.66 7 -1.32 7 -2 7 C-2 5.35 -2 3.7 -2 2 C-1.34 2 -0.68 2 0 2 C0 1.34 0 0.68 0 0 Z " fill="#009B8D" transform="translate(142,337)"/>
<path d="M0 0 C0.99 0.33 1.98 0.66 3 1 C1.1875 3.5 1.1875 3.5 -1 6 C-1.99 6 -2.98 6 -4 6 C-2.84826645 3.53199953 -1.95216435 1.95216435 0 0 Z " fill="#009B8D" transform="translate(169,323)"/>
<path d="M0 0 C1 3 1 3 0 6 C-1.98 5.34 -3.96 4.68 -6 4 C-4.03617993 2.49440461 -2.21736634 1.10868317 0 0 Z " fill="#009B8D" transform="translate(124,263)"/>
<path d="M0 0 C0.99 0.33 1.98 0.66 3 1 C1.71034824 2.37562854 0.37310707 3.70766393 -1 5 C-1.66 5 -2.32 5 -3 5 C-3 5.66 -3 6.32 -3 7 C-3.66 6.67 -4.32 6.34 -5 6 C-5 5.34 -5 4.68 -5 4 C-2.6875 1.8125 -2.6875 1.8125 0 0 Z " fill="#009B8D" transform="translate(52,243)"/>
<path d="M0 0 C0 0.66 0 1.32 0 2 C-2.66666667 3.33333333 -5.33333333 4.66666667 -8 6 C-7.67 4.35 -7.34 2.7 -7 1 C-4.50935112 0.31292445 -2.62113708 0 0 0 Z " fill="#009B8D" transform="translate(107,217)"/>
<path d="M0 0 C0.66 0.33 1.32 0.66 2 1 C2 1.66 2 2.32 2 3 C0.71349294 3.69710731 -0.57940665 4.38242876 -1.875 5.0625 C-2.95394531 5.63677734 -2.95394531 5.63677734 -4.0546875 6.22265625 C-4.69664062 6.47917969 -5.33859375 6.73570312 -6 7 C-6.66 6.67 -7.32 6.34 -8 6 C-5.36 4.02 -2.72 2.04 0 0 Z " fill="#BEBBBC" transform="translate(249,195)"/>
<path d="M0 0 C2 1 2 1 3 3 C1.02 3.66 -0.96 4.32 -3 5 C-3.66 4.34 -4.32 3.68 -5 3 C-2.625 1.4375 -2.625 1.4375 0 0 Z M4 0 C4.33 0.66 4.66 1.32 5 2 C4.34 1.67 3.68 1.34 3 1 C3.33 0.67 3.66 0.34 4 0 Z " fill="#009B8D" transform="translate(198,186)"/>
<path d="M0 0 C1.98 0.99 3.96 1.98 6 3 C3.4345406 5.5654594 1.52313332 5.54046087 -2 6 C-1.34 5.67 -0.68 5.34 0 5 C0 3.35 0 1.7 0 0 Z " fill="#009B8D" transform="translate(177,180)"/>
<path d="M0 0 C1.875 0.1875 1.875 0.1875 4 1 C5.25 3.5625 5.25 3.5625 6 6 C5.34 6.66 4.68 7.32 4 8 C4 7.01 4 6.02 4 5 C3.34 5 2.68 5 2 5 C1.34 3.35 0.68 1.7 0 0 Z " fill="#009B8D" transform="translate(68,159)"/>
<path d="M0 0 C1 2 1 2 0.375 4.5 C-1 7 -1 7 -6 9 C-4.02 6.03 -2.04 3.06 0 0 Z " fill="#009B8D" transform="translate(164,49)"/>
<path d="M0 0 C0.99 0.66 1.98 1.32 3 2 C-3.75 5 -3.75 5 -6 5 C-6 4.34 -6 3.68 -6 3 C-4.02 2.01 -2.04 1.02 0 0 Z " fill="#009B8D" transform="translate(249,42)"/>
<path d="M0 0 C0 3.86695678 -1.41909971 6.5088452 -3 10 C-3.66 9.67 -4.32 9.34 -5 9 C-4.42647107 5.12867972 -2.51295648 2.91827204 0 0 Z " fill="#009B8D" transform="translate(125,319)"/>
<path d="M0 0 C0 3 0 3 -2.5 5.6875 C-3.325 6.450625 -4.15 7.21375 -5 8 C-4.75 5.125 -4.75 5.125 -4 2 C-1.9375 0.625 -1.9375 0.625 0 0 Z " fill="#009B8D" transform="translate(78,301)"/>
<path d="M0 0 C-4.625 4 -4.625 4 -8 4 C-7 1 -7 1 -5.125 -0.25 C-3 -1 -3 -1 0 0 Z " fill="#009B8D" transform="translate(101,257)"/>
<path d="M0 0 C2.15377564 2.62198774 3.40072174 4.64404172 4 8 C1.525 7.01 1.525 7.01 -1 6 C-0.67 4.02 -0.34 2.04 0 0 Z " fill="#009B8D" transform="translate(34,233)"/>
<path d="M0 0 C0.99 0.33 1.98 0.66 3 1 C1.35 2.65 -0.3 4.3 -2 6 C-2.99 5.67 -3.98 5.34 -5 5 C-3.35 3.35 -1.7 1.7 0 0 Z " fill="#009B8D" transform="translate(210,178)"/>
<path d="M0 0 C3.65316671 1.24976756 4.78065836 1.67098753 7 5 C3.42424104 5 1.94704065 3.91159393 -1 2 C-0.67 1.34 -0.34 0.68 0 0 Z " fill="#009B8D" transform="translate(115,498)"/>
<path d="M0 0 C4.50802601 1.25805377 7.4912812 2.90407165 11 6 C6.48986609 5.46939601 3.61621781 3.69113883 0 1 C0 0.67 0 0.34 0 0 Z " fill="#009B8D" transform="translate(162,474)"/>
<path d="M0 0 C3.465 1.485 3.465 1.485 7 3 C6.67 3.66 6.34 4.32 6 5 C3.625 4.6875 3.625 4.6875 1 4 C0.34 3.01 -0.32 2.02 -1 1 C-0.67 0.67 -0.34 0.34 0 0 Z " fill="#009B8D" transform="translate(124,449)"/>
<path d="M0 0 C2 3 2 3 1.75 6.5 C1 10 1 10 -1 13 C-1.0272415 11.58344207 -1.04650467 10.16672955 -1.0625 8.75 C-1.07410156 7.96109375 -1.08570313 7.1721875 -1.09765625 6.359375 C-1.00385306 4.09308998 -0.63241063 2.1711105 0 0 Z " fill="#009B8D" transform="translate(148,353)"/>
<path d="M0 0 C1.98 0.495 1.98 0.495 4 1 C3.34 2.32 2.68 3.64 2 5 C1.01 5 0.02 5 -1 5 C-0.67 3.35 -0.34 1.7 0 0 Z " fill="#009B8D" transform="translate(122,307)"/>
<path d="M0 0 C0.33 1.32 0.66 2.64 1 4 C-0.32 4.99 -1.64 5.98 -3 7 C-3.66 6.34 -4.32 5.68 -5 5 C-3.35 3.35 -1.7 1.7 0 0 Z " fill="#009B8D" transform="translate(423,148)"/>
<path d="M0 0 C0.66 1.32 1.32 2.64 2 4 C1.34 4 0.68 4 0 4 C-0.33 5.98 -0.66 7.96 -1 10 C-2.1875 8.375 -2.1875 8.375 -3 6 C-1.625 2.75 -1.625 2.75 0 0 Z " fill="#009B8D" transform="translate(153,66)"/>
<path d="M0 0 C-1.74310252 2.11007147 -2.86337925 2.95559826 -5.5 3.8125 C-8 4 -8 4 -11 2 C-7.17010894 0.19769832 -4.21878192 -0.19622241 0 0 Z " fill="#009B8D" transform="translate(272,14)"/>
<path d="M0 0 C2.875 -0.125 2.875 -0.125 6 0 C6.66 0.66 7.32 1.32 8 2 C7.67 2.99 7.34 3.98 7 5 C3.535 3.02 3.535 3.02 0 1 C0 0.67 0 0.34 0 0 Z " fill="#009B8D" transform="translate(179,548)"/>
<path d="M0 0 C1.32 0 2.64 0 4 0 C4 0.66 4 1.32 4 2 C4.66 2 5.32 2 6 2 C6 2.66 6 3.32 6 4 C6.66 4.33 7.32 4.66 8 5 C4.75791433 4.64950425 3.38472296 4.43778819 1.1875 1.9375 C0.795625 1.298125 0.40375 0.65875 0 0 Z " fill="#009B8D" transform="translate(347,481)"/>
<path d="M0 0 C0.66 0.99 1.32 1.98 2 3 C1.125 6.1875 1.125 6.1875 0 9 C-0.66 8.34 -1.32 7.68 -2 7 C-1.6730244 4.38419521 -1.17960932 2.35921863 0 0 Z " fill="#009B8D" transform="translate(309,353)"/>
<path d="M0 0 C2.97 0 5.94 0 9 0 C7.35 1.32 5.7 2.64 4 4 C2.68 2.68 1.36 1.36 0 0 Z " fill="#009B8D" transform="translate(383,291)"/>
<path d="M0 0 C-2.3125 2.0625 -2.3125 2.0625 -5 4 C-5.99 3.67 -6.98 3.34 -8 3 C-8 2.34 -8 1.68 -8 1 C-3.375 -1.125 -3.375 -1.125 0 0 Z " fill="#009B8D" transform="translate(309,199)"/>
<path d="M0 0 C0.66 0 1.32 0 2 0 C3.23076923 5.41538462 3.23076923 5.41538462 2.0625 8.375 C1.711875 8.91125 1.36125 9.4475 1 10 C-0.1577506 6.52674819 -0.06866652 3.63932552 0 0 Z " fill="#009B8D" transform="translate(140,118)"/>
<path d="M0 0 C0.66 1.32 1.32 2.64 2 4 C0.68 4.99 -0.64 5.98 -2 7 C-2 3 -2 3 0 0 Z " fill="#009B8D" transform="translate(193,91)"/>
<path d="M0 0 C2.97 0.495 2.97 0.495 6 1 C6 1.66 6 2.32 6 3 C3.69 3 1.38 3 -1 3 C-0.67 2.01 -0.34 1.02 0 0 Z " fill="#009B8D" transform="translate(324,9)"/>
<path d="M0 0 C0.66 0 1.32 0 2 0 C2.99 1.98 3.98 3.96 5 6 C4.01 6 3.02 6 2 6 C0 3 0 3 0 0 Z " fill="#009B8D" transform="translate(242,554)"/>
<path d="M0 0 C1.875 0.3125 1.875 0.3125 4 1 C4.66 1.99 5.32 2.98 6 4 C4.68 4 3.36 4 2 4 C1.34 2.68 0.68 1.36 0 0 Z " fill="#009B8D" transform="translate(97,483)"/>
<path d="M0 0 C0.66 0.33 1.32 0.66 2 1 C1.67 3.31 1.34 5.62 1 8 C0.67 7.34 0.34 6.68 0 6 C-0.66 5.67 -1.32 5.34 -2 5 C-1.125 1.125 -1.125 1.125 0 0 Z " fill="#009B8D" transform="translate(384,324)"/>
<path d="M0 0 C0.99 0.33 1.98 0.66 3 1 C0.6875 3.0625 0.6875 3.0625 -2 5 C-2.99 4.67 -3.98 4.34 -5 4 C-2.6875 1.9375 -2.6875 1.9375 0 0 Z " fill="#009B8D" transform="translate(113,269)"/>
<path d="M0 0 C0.66 0 1.32 0 2 0 C2 1.65 2 3.3 2 5 C0.35 5.33 -1.3 5.66 -3 6 C-3 4 -3 4 -1.5 2.4375 C-0.7575 1.7259375 -0.7575 1.7259375 0 1 C0 0.67 0 0.34 0 0 Z " fill="#009B8D" transform="translate(285,257)"/>
<path d="M0 0 C0 0.99 0 1.98 0 3 C-2.3125 3.625 -2.3125 3.625 -5 4 C-5.99 3.34 -6.98 2.68 -8 2 C-2.25 0 -2.25 0 0 0 Z " fill="#009B8D" transform="translate(162,248)"/>
<path d="M0 0 C0.598125 0.350625 1.19625 0.70125 1.8125 1.0625 C-0.6625 2.5475 -0.6625 2.5475 -3.1875 4.0625 C-3.8475 2.7425 -4.5075 1.4225 -5.1875 0.0625 C-2.1875 -0.9375 -2.1875 -0.9375 0 0 Z " fill="#009B8D" transform="translate(168.1875,246.9375)"/>
<path d="M0 0 C0.99 0.33 1.98 0.66 3 1 C1.35 2.65 -0.3 4.3 -2 6 C-2 4.68 -2 3.36 -2 2 C-1.34 2 -0.68 2 0 2 C0 1.34 0 0.68 0 0 Z " fill="#009B8D" transform="translate(37,173)"/>
</g>
</g>
</svg>
